<svg width="210" height="495" viewBox="0 0 210 495" fill="none" xmlns="http://www.w3.org/2000/svg">
<g clip-path="url(#clip0_154_806)">
<path d="M180.569 143.779L180.142 143.554C182.903 143.184 191.954 140.352 192.9 142.828C193.261 143.769 190.712 145.213 188.794 146.145C193.007 148.168 202.527 147.859 207.872 147.489C208.226 147.464 208.578 147.558 208.883 147.756C209.187 147.954 209.43 148.249 209.579 148.601C209.729 148.952 209.777 149.345 209.719 149.728C209.661 150.11 209.499 150.465 209.253 150.745C199.619 161.735 180.047 155.858 180.047 155.858L175.108 154.722L180.569 143.779Z" fill="#E98862"/>
<path d="M87.2078 14.2417C87.2078 14.2417 94.9088 41.7756 99.2022 56.0597C99.4058 56.7362 99.4618 57.4555 99.3657 58.16C99.2696 58.8644 99.024 59.5345 98.6487 60.1164C98.2734 60.6984 97.7787 61.1761 97.2043 61.5114C96.6299 61.8466 95.9918 62.03 95.3409 62.0468L70.5215 62.7188C69.4495 62.7473 68.4086 62.3234 67.6145 61.535C66.8204 60.7466 66.334 59.6541 66.2562 58.484L63.71 19.9337L87.2078 14.2417Z" fill="#0F1011"/>
<path d="M50.5658 76.9458C50.5658 76.9458 57.6909 72.5722 55.6105 51.1184L70.4506 47.7046C70.4506 47.7046 69.1962 67.0211 76.8711 72.9439L50.5658 76.9458Z" fill="#E98862"/>
<g opacity="0.15">
<path d="M73.7294 68.995L61.1219 58.9518L70.8454 58.5862C71.2062 62.222 72.1843 65.752 73.7294 68.995Z" fill="black"/>
</g>
<path d="M46.9706 43.004C48.1438 49.4987 51.5318 55.59 56.8369 57.5588C62.6222 59.8992 68.8434 60.6541 74.9568 59.7574C91.2436 57.8682 87.1303 17.3542 79.2109 9.67094C71.2916 1.98764 48.6618 7.57448 46.1828 20.8364C44.9014 27.6956 45.8534 36.827 46.9706 43.004Z" fill="#E98862"/>
<path d="M70.1734 37.3712C70.9203 37.3712 71.5258 36.7087 71.5258 35.8915C71.5258 35.0743 70.9203 34.4119 70.1734 34.4119C69.4265 34.4119 68.821 35.0743 68.821 35.8915C68.821 36.7087 69.4265 37.3712 70.1734 37.3712Z" fill="#0F1011"/>
<path d="M80.8191 36.1366C81.566 36.1366 82.1715 35.4741 82.1715 34.6569C82.1715 33.8397 81.566 33.1772 80.8191 33.1772C80.0722 33.1772 79.4667 33.8397 79.4667 34.6569C79.4667 35.4741 80.0722 36.1366 80.8191 36.1366Z" fill="#0F1011"/>
<path d="M79.4938 31.4883C79.3292 31.4824 79.1732 31.4069 79.0584 31.2778C78.9436 31.1487 78.879 30.9759 78.8781 30.7958C78.8773 30.6156 78.9402 30.4422 79.0538 30.3118C79.1674 30.1813 79.3228 30.1042 79.4872 30.0964L83.0703 30.0525H83.0778C83.2424 30.0582 83.3985 30.1336 83.5134 30.2626C83.6283 30.3916 83.693 30.5643 83.694 30.7445C83.6949 30.9246 83.6321 31.0982 83.5186 31.2287C83.4051 31.3592 83.2497 31.4365 83.0852 31.4443L79.5012 31.4883H79.4938Z" fill="#0F1011"/>
<path d="M67.1811 33.2875C67.0273 33.2862 66.8792 33.2241 66.7641 33.1125C66.6489 33.001 66.5746 32.8476 66.5548 32.6808C66.535 32.5139 66.5711 32.3449 66.6563 32.2049C66.7416 32.0649 66.8704 31.9634 67.0187 31.9192L70.53 30.898C70.6114 30.8717 70.6969 30.8636 70.7813 30.8741C70.8657 30.8845 70.9473 30.9134 71.0213 30.959C71.0953 31.0045 71.1602 31.0659 71.2122 31.1394C71.2642 31.2128 71.3022 31.297 71.324 31.3868C71.3458 31.4766 71.3509 31.5703 71.339 31.6623C71.3271 31.7543 71.2985 31.8428 71.2548 31.9225C71.2112 32.0022 71.1534 32.0715 71.0848 32.1264C71.0163 32.1812 70.9384 32.2205 70.8557 32.2419L67.3454 33.263C67.2918 33.2787 67.2366 33.2869 67.1811 33.2875Z" fill="#0F1011"/>
<path d="M71.0526 47.5248C71.0526 47.5248 76.0563 47.9711 79.5264 46.5425C79.5264 46.5425 79.5768 50.139 75.6353 50.5976C71.6938 51.0561 71.0526 47.5248 71.0526 47.5248Z" fill="white"/>
<g opacity="0.15">
<path d="M76.354 43.9406C76.2418 43.9442 76.1323 43.9034 76.0454 43.8258C75.9584 43.7482 75.9 43.6389 75.8807 43.518C75.8614 43.397 75.8826 43.2725 75.9404 43.1673C75.9982 43.0621 76.0887 42.9831 76.1953 42.945L78.9244 41.9493L76.8981 37.3132C76.854 37.1929 76.8534 37.0587 76.8964 36.9379C76.9394 36.817 77.0228 36.7186 77.1297 36.6626C77.2366 36.6066 77.3589 36.5972 77.4719 36.6363C77.5849 36.6754 77.6801 36.76 77.7381 36.8731L80.2199 42.5528L76.4865 43.9151C76.4437 43.9306 76.3991 43.9392 76.354 43.9406Z" fill="black"/>
</g>
<path d="M88.1337 17.5422C88.1337 17.5422 85.2665 -3.53786 54.4168 2.49421C46.726 3.99737 35.9366 10.8882 34.6495 32.5504C34.0643 42.4864 31.1523 51.9189 28.903 57.901C28.6367 58.6032 28.5349 59.3671 28.6069 60.1234C28.6788 60.8796 28.9223 61.6042 29.3151 62.2314C29.7079 62.8586 30.2377 63.3685 30.8563 63.7149C31.4749 64.0612 32.1628 64.2331 32.8575 64.2149L54.6258 63.6338C55.1729 63.62 55.712 63.4885 56.2126 63.2467C56.7132 63.0049 57.1653 62.6576 57.5432 62.2246C57.9211 61.7917 58.2173 61.2815 58.415 60.7232C58.6126 60.165 58.7078 59.5696 58.6952 58.9711C58.6952 58.9048 58.6952 58.8374 58.6877 58.7669C58.4385 54.718 58.1604 47.8577 58.1342 37.3621C59.1301 31.3433 56.0202 27.2045 60.4275 28.4616C76.7945 33.1232 86.9213 17.918 88.1337 17.5422Z" fill="#0F1011"/>
<path d="M63.486 42.4455C63.5657 43.2648 63.4971 44.0931 63.2842 44.8834C63.0712 45.6736 62.7181 46.4102 62.245 47.0511C61.7719 47.692 61.188 48.2247 60.5267 48.6187C59.8654 49.0128 59.1397 49.2605 58.3909 49.3476C56.8787 49.5237 55.3645 49.0352 54.1815 47.9898C53.5957 47.4722 53.1088 46.8333 52.7487 46.1098C52.3885 45.3863 52.1622 44.5923 52.0825 43.773C51.8997 42.1492 52.314 40.5124 53.2341 39.2226C54.1542 37.9328 55.5049 37.0958 56.9891 36.8954C57.0516 36.8873 57.1151 36.8801 57.1757 36.874C61.2619 36.6146 63.151 39.0001 63.486 42.4455Z" fill="#E98862"/>
<path d="M112.693 483.785L93.2288 481.252C94.1052 473.192 95.0954 463.512 95.1626 461.924C95.158 462.026 95.1626 462.109 95.1626 462.174H114.763C114.759 462.817 114.759 464.773 112.693 483.785Z" fill="#E98862"/>
<path d="M34.5944 486.348L14.9943 486.279C14.9943 486.279 15.0596 464.134 15.0596 462.174H34.6598C34.6598 464.141 34.5944 486.348 34.5944 486.348Z" fill="#E98862"/>
<path d="M85.3943 477.013L119.928 476.37C118.306 431.406 118.207 384.241 117.701 339.169C110.961 290.587 108.346 233.049 100.028 184.816H25.8276C25.8276 184.816 14.1608 405.194 9.94305 475.796L44.3535 478.977C50.5536 409.756 61.0817 318.085 66.9832 245.367C73.7602 280.771 77.4366 308.238 83.3298 343.338C84.5086 387.275 85.5044 433.207 85.3943 477.013Z" fill="#262626"/>
<path d="M58.4217 494.643C58.9488 494.64 59.4696 494.518 59.9517 494.285C60.4338 494.052 60.8669 493.713 61.2238 493.289C61.5808 492.864 61.854 492.364 62.0264 491.819C62.1988 491.274 62.2668 490.696 62.226 490.121C62.169 489.324 61.9052 488.562 61.4656 487.923C61.0259 487.285 60.4287 486.797 59.7443 486.518L36.9315 478.158C36.4895 477.998 36.0211 477.944 35.5582 478C35.0954 478.057 34.6492 478.222 34.25 478.484C31.1142 480.865 27.3627 482.082 23.5474 481.956C20.5755 481.725 17.7228 480.585 15.3144 478.666C15.1029 478.476 14.8462 478.355 14.5745 478.319C14.3028 478.282 14.0272 478.331 13.7799 478.46C13.5326 478.588 13.3238 478.791 13.1779 479.045C13.032 479.298 12.955 479.592 12.9559 479.891V492.1C12.9558 492.46 13.0207 492.817 13.1469 493.15C13.2731 493.482 13.4581 493.784 13.6913 494.038C13.9245 494.292 14.2013 494.494 14.5058 494.63C14.8103 494.767 15.1365 494.837 15.4656 494.835L58.4217 494.643Z" fill="#FF4444"/>
<path d="M136.573 494.643C137.1 494.64 137.621 494.519 138.103 494.286C138.586 494.053 139.019 493.713 139.376 493.289C139.733 492.865 140.006 492.364 140.178 491.819C140.351 491.274 140.418 490.696 140.377 490.121C140.321 489.324 140.057 488.562 139.617 487.923C139.178 487.285 138.581 486.797 137.897 486.518L115.083 478.158C114.641 477.998 114.173 477.944 113.71 478C113.247 478.057 112.801 478.222 112.402 478.484C109.266 480.865 105.514 482.082 101.699 481.956C98.7272 481.725 95.8748 480.585 93.4668 478.666C93.2551 478.476 92.9984 478.356 92.7267 478.319C92.455 478.283 92.1793 478.332 91.932 478.46C91.6847 478.589 91.4758 478.791 91.3298 479.045C91.1838 479.298 91.1066 479.592 91.1073 479.891V492.1C91.1073 492.46 91.1723 492.817 91.2985 493.149C91.4248 493.482 91.6098 493.784 91.843 494.038C92.0762 494.292 92.353 494.493 92.6574 494.63C92.9618 494.767 93.288 494.836 93.6171 494.835L136.573 494.643Z" fill="#FF4444"/>
<path d="M16.9506 215.669L17.155 215.202C17.4938 218.223 20.0829 228.125 17.8195 229.161C16.959 229.555 15.6392 226.767 14.7871 224.668C12.9382 229.276 13.221 239.693 13.5598 245.541C13.5816 245.928 13.4962 246.314 13.3147 246.647C13.1332 246.98 12.8641 247.246 12.5426 247.409C12.221 247.572 11.8619 247.625 11.5122 247.562C11.1625 247.498 10.8385 247.321 10.5824 247.053C0.537786 236.512 5.90917 215.098 5.90917 215.098L6.94797 209.694L16.9506 215.669Z" fill="#E98862"/>
<path d="M103.776 187.063C99.8648 196.897 26.8543 202.115 25.8276 184.816C25.1743 173.808 30.2143 163.066 30.2143 141.611C30.2143 120.156 13.8874 93.0295 28.5875 76.946C32.8538 72.2792 38.9205 69.4516 47.8983 69.4414C48.5703 75.1702 79.9558 75.3285 80.1975 69.712C81.4108 69.7324 82.3535 69.7529 82.9415 69.7835C113.91 71.2438 100.29 109.209 99.9909 137.536C99.6222 170.683 107.808 176.933 103.776 187.063Z" fill="#F3F5FD"/>
<path d="M80.1807 69.1176C79.938 74.7341 76.3055 75.7032 67.6907 76.3261C56.2106 77.1532 48.1484 74.7136 47.4764 68.9849H47.5044C58.8072 68.9849 73.5913 69.0053 80.1807 69.1176Z" fill="#E98862"/>
<path d="M68.4066 146.48C70.0101 164.225 69.3399 172.251 68.7155 194.844C68.6396 197.609 67.5825 200.234 65.7682 202.161C63.954 204.088 61.5252 205.166 58.9967 205.167H33.0843C31.7383 205.166 30.4071 204.86 29.1748 204.267C27.9426 203.674 26.8362 202.808 25.9256 201.724C25.015 200.639 24.3201 199.36 23.8847 197.966C23.4493 196.573 23.283 195.095 23.3963 193.628C25.6297 164.23 26.3764 136.89 27.6766 124.903C27.6766 124.903 27.0577 144.681 24.8663 156.028C22.6748 167.376 20.5589 217.547 20.5589 217.547C20.5589 217.547 15.713 218.701 0.437012 218.701C0.437012 218.701 0.437006 162.404 4.08917 146.02C7.74133 129.636 20.4693 75.7439 31.6003 71.5193C40.5203 68.1341 52.9738 68.9766 52.9738 68.9766C52.9738 68.9766 66.5353 125.724 68.4066 146.48Z" fill="#FF0000"/>
<path d="M76.2205 68.9849C76.2205 68.9849 68.4066 118.512 68.4066 146.481C68.4066 156.037 67.8671 166.966 68.2685 194.293C68.2889 195.709 68.5677 197.107 69.0883 198.404C69.609 199.702 70.361 200.872 71.3005 201.847C72.2399 202.822 73.3478 203.582 74.5592 204.083C75.7706 204.583 77.0611 204.814 78.3551 204.762L97.51 203.978C98.8125 203.924 100.092 203.584 101.272 202.979C102.452 202.373 103.509 201.514 104.38 200.453C105.25 199.392 105.917 198.15 106.34 196.801C106.764 195.452 106.935 194.024 106.843 192.602C105.569 172.743 102.947 132.353 102.331 126.849L118.139 151.152C119.119 152.659 120.384 153.918 121.848 154.844C123.311 155.77 124.94 156.34 126.623 156.518L182.231 161.965C182.231 161.965 183.205 151.365 184.774 139.295L131.831 132.273C131.831 132.273 104.093 77.2512 95.2439 71.9779C91.3798 69.6762 86.0822 69.3515 82.9238 69.1952C79.0205 68.9951 76.2205 68.9849 76.2205 68.9849Z" fill="#FF0000"/>
<path d="M68.5886 196.23C68.527 196.23 68.4679 196.203 68.4242 196.155C68.3805 196.108 68.3558 196.043 68.3553 195.976L68.1686 146.481C68.1696 146.414 68.1946 146.35 68.2382 146.303C68.2818 146.256 68.3406 146.23 68.4019 146.229C68.4637 146.229 68.5229 146.256 68.5666 146.304C68.6103 146.351 68.635 146.416 68.6353 146.484L68.822 195.978C68.8222 196.011 68.8164 196.045 68.8048 196.076C68.7932 196.107 68.7761 196.135 68.7545 196.159C68.7329 196.183 68.7072 196.202 68.6789 196.214C68.6506 196.227 68.6202 196.234 68.5895 196.234L68.5886 196.23Z" fill="#FF3636"/>
<g opacity="0.25">
<path d="M68.5886 196.23C68.527 196.23 68.4679 196.203 68.4242 196.155C68.3805 196.108 68.3558 196.043 68.3553 195.976L68.1686 146.481C68.1696 146.414 68.1946 146.35 68.2382 146.303C68.2818 146.256 68.3406 146.23 68.4019 146.229C68.4637 146.229 68.5229 146.256 68.5666 146.304C68.6103 146.351 68.635 146.416 68.6353 146.484L68.822 195.978C68.8222 196.011 68.8164 196.045 68.8048 196.076C68.7932 196.107 68.7761 196.135 68.7545 196.159C68.7329 196.183 68.7072 196.202 68.6789 196.214C68.6506 196.227 68.6202 196.234 68.5895 196.234L68.5886 196.23Z" fill="#0F1011"/>
</g>
<path d="M52.971 68.9849C52.971 68.9849 68.4644 104.712 68.4644 147.734L45.7217 93.6829L51.2462 86.0905L43.4995 80.0963L44.9555 69.0768C47.4764 68.5182 52.971 68.9849 52.971 68.9849Z" fill="#FF4444"/>
<path d="M76.2205 68.9849C76.2205 68.9849 66.6444 111.19 68.4626 147.734L85.188 93.6829L80.1807 86.8891L86.4592 81.6944L82.9247 69.1891L76.2205 68.9849Z" fill="#FF4444"/>
<path opacity="0.25" d="M65.461 155.017C66.2677 155.017 66.9216 154.301 66.9216 153.418C66.9216 152.536 66.2677 151.82 65.461 151.82C64.6542 151.82 64.0003 152.536 64.0003 153.418C64.0003 154.301 64.6542 155.017 65.461 155.017Z" fill="#0F1011"/>
<path opacity="0.25" d="M65.461 167.873C66.2677 167.873 66.9216 167.158 66.9216 166.275C66.9216 165.392 66.2677 164.677 65.461 164.677C64.6542 164.677 64.0003 165.392 64.0003 166.275C64.0003 167.158 64.6542 167.873 65.461 167.873Z" fill="#0F1011"/>
<path opacity="0.25" d="M65.461 180.73C66.2677 180.73 66.9216 180.014 66.9216 179.132C66.9216 178.249 66.2677 177.533 65.461 177.533C64.6542 177.533 64.0003 178.249 64.0003 179.132C64.0003 180.014 64.6542 180.73 65.461 180.73Z" fill="#0F1011"/>
</g>
<defs>
<clipPath id="clip0_154_806">
<rect width="210" height="495" fill="white"/>
</clipPath>
</defs>
</svg>
