<svg width="711" height="252" viewBox="0 0 711 252" fill="none" xmlns="http://www.w3.org/2000/svg">
<g filter="url(#filter0_d_154_1045)">
<path d="M510.072 10.9568C510.072 10.9568 525.632 7.06177 538.97 7.06177C546.221 7.06177 551.901 7.4012 555.575 7.71108C556.844 7.81948 558.02 8.42458 558.847 9.39517C559.674 10.3658 560.086 11.6236 559.993 12.896L559.531 19.302L510.072 10.9568Z" fill="#C1D8ED"/>
<path d="M39.2067 203.316H646.781L621.773 117.633H78.6639L39.2067 203.316Z" fill="#C1D8ED"/>
<g opacity="0.78">
<path d="M39.2067 203.316H646.781L621.773 117.633H78.6639L39.2067 203.316Z" fill="#0F1011"/>
</g>
<path d="M698.875 178.488C697.599 184.797 695.751 189.977 693.28 193.446C676.237 217.191 632.523 216.451 632.523 216.451C632.802 207.958 632.212 199.459 630.763 191.086C626.275 164.44 611.107 126.59 561.201 128.354C510.643 130.145 497.435 170.696 494.112 196.148C493.207 202.875 492.903 209.67 493.203 216.451H195.747C195.513 210.787 194.906 205.144 193.929 199.56C189.382 172.232 173.45 121.785 117.949 126.676C67.8156 131.112 58.5277 174.196 57.4196 199.02C57.1057 204.833 57.2578 210.662 57.8743 216.451C57.8743 216.451 29.8398 212.357 15.6355 206.3C13.6827 205.471 11.9369 204.22 10.5231 202.637C9.10931 201.054 8.06237 199.178 7.45717 197.143L6.38183 193.56L0.441956 173.796C0.0251533 172.402 -0.0966898 170.936 0.0842072 169.492C0.265104 168.048 0.744766 166.658 1.49256 165.41L6.03961 157.846C5.32757 153.563 5.08948 149.214 5.32963 144.879C5.72849 136.035 8.14162 124.461 16.7475 115.987L16.8049 115.93C20.8868 112.003 25.8258 109.081 31.231 107.395C72.5597 93.859 153.482 78.6438 163.139 75.4891C182.55 69.4907 201.271 61.4458 218.985 51.4894C265.137 25.4963 336.88 2.62276 393.758 0.559029C484.631 -2.74102 566.546 2.80486 696.236 65.1113C696.236 65.1113 696.435 66.533 696.748 69.0639V69.0919C697.625 76.2303 699.418 92.1835 700.61 110.553C702.085 133.7 702.568 160.658 698.875 178.488Z" fill="#DEE8F5"/>
<path d="M41.9964 125.396C41.9964 132.25 38.4744 141.946 5.32724 144.876C5.7261 136.031 8.13923 124.458 16.7451 115.983L16.8025 115.927C18.2791 115.927 41.9964 118.514 41.9964 125.396Z" fill="#F3F5FD"/>
<path d="M700.608 110.552H656.781C653.174 110.552 644.823 107.481 648.174 92.4661C651.498 77.4514 696.745 69.0654 696.745 69.0654V69.0934C697.626 76.2286 699.415 92.1818 700.608 110.552Z" fill="#FD5D76"/>
<g opacity="0.76">
<path d="M534.587 23.3919L530.359 66.3596L394.441 72.0189L400.832 7.21027C403.758 7.12561 406.712 7.06812 409.694 7.06812C469.481 7.06891 502.973 13.2968 534.587 23.3919Z" fill="#0F1011"/>
</g>
<g opacity="0.76">
<path d="M571.173 64.74L536.89 66.1049L540.894 25.4963C553.349 29.8036 565.385 35.2386 576.853 41.7339C587.589 47.8196 583.498 64.256 571.173 64.74Z" fill="#0F1011"/>
</g>
<path d="M366.057 94.97H339.382C338.001 94.97 336.881 96.091 336.881 97.4738C336.881 98.8566 338.001 99.9776 339.382 99.9776H366.057C367.438 99.9776 368.558 98.8566 368.558 97.4738C368.558 96.091 367.438 94.97 366.057 94.97Z" fill="#C1D8ED"/>
<path d="M57.8743 216.451C57.8743 216.451 29.8398 212.357 15.6355 206.3C13.6827 205.471 11.9369 204.22 10.5231 202.637C9.10932 201.054 8.06237 199.178 7.45717 197.143L6.38184 193.56C16.2386 195.465 32.3997 197.74 57.4236 199.02C57.1084 204.833 57.2591 210.662 57.8743 216.451V216.451Z" fill="#C1D8ED"/>
<path d="M494.112 196.15C493.207 202.878 492.903 209.672 493.203 216.454H195.747C195.513 210.789 194.906 205.146 193.929 199.562C289.991 198.706 411.825 197.143 494.112 196.15Z" fill="#C1D8ED"/>
<path d="M698.875 178.488C697.599 184.797 695.751 189.977 693.28 193.446C676.237 217.191 632.524 216.451 632.524 216.451C632.802 207.958 632.212 199.459 630.763 191.086C657.349 188.526 684.844 184.545 698.875 178.488Z" fill="#C1D8ED"/>
<path d="M383.432 205.051L381.132 204.974L389.961 70.9496L392.262 71.0278L383.432 205.051Z" fill="#C1D8ED"/>
<path d="M212.582 79.5846H210.276V206.299H212.582V79.5846Z" fill="#C1D8ED"/>
<g opacity="0.76">
<path d="M394.295 7.46753L387.904 72.2786L212.506 79.5304C211.836 79.5616 211.173 79.3729 210.62 78.9929C210.067 78.613 209.653 78.0625 209.441 77.4252C209.228 76.788 209.23 76.0988 209.445 75.4625C209.66 74.8262 210.076 74.2775 210.631 73.8999C235.314 57.3181 302.437 12.1596 394.295 7.46753Z" fill="#0F1011"/>
</g>
<path d="M206.76 74.9404H220.651C224.705 74.9404 228.592 76.5525 231.458 79.4219C234.324 82.2913 235.934 86.1831 235.934 90.2411C235.934 91.4953 235.437 92.6981 234.551 93.5849C233.665 94.4717 232.464 94.97 231.211 94.97H206.76C205.507 94.97 204.306 94.4717 203.42 93.5849C202.534 92.6981 202.036 91.4953 202.036 90.2411V79.6693C202.036 78.4151 202.534 77.2123 203.42 76.3255C204.306 75.4386 205.507 74.9404 206.76 74.9404Z" fill="#C1D8ED"/>
<path d="M125.037 245.297C155.953 245.297 181.016 220.205 181.016 189.252C181.016 158.3 155.953 133.208 125.037 133.208C94.1203 133.208 69.0577 158.3 69.0577 189.252C69.0577 220.205 94.1203 245.297 125.037 245.297Z" fill="#0F1011"/>
<path d="M125.037 153.393C132.121 153.393 139.046 155.496 144.936 159.436C150.826 163.376 155.417 168.977 158.128 175.529C160.839 182.082 161.548 189.292 160.166 196.248C158.784 203.204 155.373 209.594 150.364 214.609C145.354 219.624 138.972 223.039 132.024 224.423C125.076 225.807 117.875 225.097 111.33 222.382C104.785 219.668 99.1908 215.072 95.255 209.175C91.3193 203.278 89.2186 196.345 89.2186 189.252C89.2294 179.745 93.0065 170.63 99.7214 163.908C106.436 157.185 115.54 153.403 125.037 153.393M125.037 149.624C117.208 149.624 109.555 151.948 103.045 156.303C96.5358 160.657 91.4623 166.846 88.4664 174.088C85.4704 181.329 84.6866 189.297 86.214 196.985C87.7414 204.672 91.5114 211.733 97.0473 217.276C102.583 222.818 109.636 226.592 117.315 228.121C124.993 229.65 132.952 228.865 140.185 225.866C147.418 222.866 153.6 217.787 157.949 211.27C162.299 204.752 164.62 197.09 164.62 189.252C164.62 184.048 163.596 178.895 161.607 174.087C159.617 169.279 156.702 164.91 153.026 161.23C149.35 157.551 144.987 154.632 140.184 152.64C135.382 150.649 130.235 149.624 125.037 149.624V149.624Z" fill="#F3F5FD"/>
<path d="M125.037 198.694C130.245 198.694 134.467 194.467 134.467 189.252C134.467 184.038 130.245 179.811 125.037 179.811C119.828 179.811 115.606 184.038 115.606 189.252C115.606 194.467 119.828 198.694 125.037 198.694Z" fill="#F3F5FD"/>
<path d="M135.962 151.508L126.919 189.252H123.155L114.111 151.508H135.962Z" fill="#F3F5FD"/>
<path d="M114.111 226.997L123.155 189.252H126.919L135.962 226.997H114.111Z" fill="#F3F5FD"/>
<path d="M151.766 218.031L124.07 190.87L126.004 187.636L162.994 199.263L151.766 218.031Z" fill="#F3F5FD"/>
<path d="M98.3079 160.474L126.004 187.636L124.07 190.87L87.0799 179.243L98.3079 160.474Z" fill="#F3F5FD"/>
<path d="M87.0799 199.263L124.07 187.636L126.004 190.87L98.3079 218.031L87.0799 199.263Z" fill="#F3F5FD"/>
<path d="M162.994 179.243L126.004 190.87L124.07 187.636L151.766 160.474L162.994 179.243Z" fill="#F3F5FD"/>
<path d="M125.037 194.101C127.711 194.101 129.88 191.93 129.88 189.252C129.88 186.575 127.711 184.404 125.037 184.404C122.362 184.404 120.194 186.575 120.194 189.252C120.194 191.93 122.362 194.101 125.037 194.101Z" fill="#0F1011"/>
<path d="M562.437 245.297C593.353 245.297 618.416 220.205 618.416 189.252C618.416 158.3 593.353 133.208 562.437 133.208C531.521 133.208 506.458 158.3 506.458 189.252C506.458 220.205 531.521 245.297 562.437 245.297Z" fill="#0F1011"/>
<path d="M562.437 153.393C569.521 153.393 576.446 155.496 582.336 159.436C588.226 163.376 592.817 168.977 595.528 175.529C598.239 182.082 598.949 189.292 597.567 196.248C596.184 203.204 592.773 209.594 587.764 214.609C582.755 219.624 576.373 223.039 569.425 224.423C562.477 225.807 555.275 225.097 548.73 222.382C542.185 219.668 536.591 215.072 532.655 209.175C528.72 203.278 526.619 196.345 526.619 189.252C526.63 179.745 530.407 170.63 537.122 163.908C543.837 157.185 552.941 153.404 562.437 153.393M562.437 149.624C554.608 149.624 546.955 151.948 540.445 156.303C533.936 160.657 528.863 166.846 525.867 174.088C522.871 181.329 522.087 189.297 523.614 196.985C525.142 204.672 528.912 211.733 534.448 217.276C539.983 222.818 547.037 226.592 554.715 228.121C562.393 229.65 570.352 228.865 577.585 225.866C584.818 222.866 591 217.787 595.349 211.27C599.699 204.752 602.02 197.09 602.02 189.252C602.02 184.048 600.996 178.895 599.007 174.087C597.018 169.279 594.102 164.91 590.426 161.23C586.751 157.551 582.387 154.632 577.585 152.64C572.782 150.649 567.635 149.624 562.437 149.624V149.624Z" fill="#F3F5FD"/>
<path d="M562.437 198.694C567.645 198.694 571.868 194.467 571.868 189.252C571.868 184.038 567.645 179.811 562.437 179.811C557.228 179.811 553.006 184.038 553.006 189.252C553.006 194.467 557.228 198.694 562.437 198.694Z" fill="#F3F5FD"/>
<path d="M573.362 151.508L564.319 189.252H560.555L551.511 151.508H573.362Z" fill="#F3F5FD"/>
<path d="M551.511 226.997L560.555 189.252H564.319L573.362 226.997H551.511Z" fill="#F3F5FD"/>
<path d="M589.166 218.031L561.47 190.87L563.404 187.636L600.394 199.263L589.166 218.031Z" fill="#F3F5FD"/>
<path d="M535.708 160.474L563.404 187.636L561.47 190.87L524.48 179.243L535.708 160.474Z" fill="#F3F5FD"/>
<path d="M524.48 199.263L561.47 187.636L563.404 190.87L535.708 218.031L524.48 199.263Z" fill="#F3F5FD"/>
<path d="M600.394 179.243L563.404 190.87L561.47 187.636L589.166 160.474L600.394 179.243Z" fill="#F3F5FD"/>
<path d="M562.437 194.101C565.112 194.101 567.28 191.93 567.28 189.252C567.28 186.575 565.112 184.404 562.437 184.404C559.762 184.404 557.594 186.575 557.594 189.252C557.594 191.93 559.762 194.101 562.437 194.101Z" fill="#0F1011"/>
<path d="M394.295 7.46731L400.828 7.21094L394.437 72.0196L387.904 72.2752L394.295 7.46731Z" fill="#C1D8ED"/>
<path d="M528.391 136.927L525.832 138.827L531.874 66.0059L534.259 66.2039L528.391 136.927Z" fill="#C1D8ED"/>
<path d="M534.587 23.3918L540.893 25.4963L536.888 66.1048L530.355 66.3604L534.587 23.3918Z" fill="#C1D8ED"/>
</g>
<defs>
<filter id="filter0_d_154_1045" x="0.00292969" y="-0.176025" width="710.707" height="254.473" filterUnits="userSpaceOnUse" color-interpolation-filters="sRGB">
<feFlood flood-opacity="0" result="BackgroundImageFix"/>
<feColorMatrix in="SourceAlpha" type="matrix" values="0 0 0 0 0 0 0 0 0 0 0 0 0 0 0 0 0 0 127 0" result="hardAlpha"/>
<feOffset dx="5" dy="5"/>
<feGaussianBlur stdDeviation="2"/>
<feComposite in2="hardAlpha" operator="out"/>
<feColorMatrix type="matrix" values="0 0 0 0 0 0 0 0 0 0 0 0 0 0 0 0 0 0 0.25 0"/>
<feBlend mode="normal" in2="BackgroundImageFix" result="effect1_dropShadow_154_1045"/>
<feBlend mode="normal" in="SourceGraphic" in2="effect1_dropShadow_154_1045" result="shape"/>
</filter>
</defs>
</svg>
