<svg width="252" height="495" viewBox="0 0 252 495" fill="none" xmlns="http://www.w3.org/2000/svg">
<g clip-path="url(#clip0_150_647)">
<path d="M158.87 55.7533C158.86 55.6512 158.86 55.5491 158.86 55.447C158.86 53.5885 158.926 51.5767 159.094 49.371L144.188 46.3381C144.428 49.7796 144.393 53.2374 144.086 56.6724C144.03 57.2647 143.964 57.8672 143.89 58.4799C143.247 63.4734 141.78 68.7324 138.56 71.5304H161.894C160.419 68.7222 158.916 63.8727 158.87 55.7533Z" fill="#E98862"/>
<path d="M167.557 41.0302C166.525 47.5544 163.271 53.7315 158.012 55.8372C151.768 58.338 147.143 58.5075 139.944 58.5075C130.121 58.5075 130.446 47.2981 130.17 36.0029C129.89 24.6618 130.717 12.4976 134.6 8.54568C142.347 0.657125 165.095 5.6527 167.861 18.8462C169.292 25.6717 168.54 34.8194 167.557 41.0302Z" fill="#E98862"/>
<path d="M124.904 15.1037C124.904 15.1037 120.882 14.1203 121.983 9.73127C122.713 6.81991 126.122 7.46733 126.122 7.46733C126.122 7.46733 122.895 6.81991 122.895 3.73699C122.895 1.79676 124.259 -1.49549 128.375 0.385504C133.203 2.59226 138.71 2.30837 142.897 1.53841C145.267 0.970821 147.671 0.599423 150.092 0.427372H150.104C152.886 0.374136 155.659 0.780017 158.33 1.63133C165.816 4.08215 177.319 11.456 174.736 28.0725C171.945 46.0309 161.95 53.9235 160.573 55.0151C157.988 57.0718 142.093 57.4884 140.518 55.7657C138.161 53.1862 136.878 42.8162 137.356 24.7496C130.842 23.6264 126.366 23.1393 126.366 23.1393C126.366 23.1393 120.953 23.3619 120.953 19.0321C120.953 14.7023 124.904 15.1037 124.904 15.1037Z" fill="#0F1011"/>
<path d="M132.604 38.1463C132.502 39.7909 132.997 41.4131 133.98 42.662C134.963 43.911 136.356 44.6864 137.857 44.8206C139.359 44.9548 140.848 44.4369 142.004 43.379C143.159 42.3212 143.888 40.8083 144.031 39.1675C144.106 38.3438 144.028 37.5121 143.803 36.7219C143.578 35.9318 143.209 35.1993 142.72 34.5681C142.231 33.937 141.63 33.4201 140.954 33.0481C140.278 32.6762 139.541 32.4569 138.786 32.4032C134.7 32.2664 132.862 34.6937 132.604 38.1463Z" fill="#E98862"/>
<path d="M17.1468 138.535L12.3408 134.945C11.1901 134.085 9.62035 134.409 8.83472 135.668L1.6748 147.142C0.88917 148.401 1.18512 150.118 2.33582 150.978L7.14187 154.568C8.29257 155.427 9.86228 155.103 10.6479 153.844L17.8078 142.371C18.5935 141.112 18.2975 139.394 17.1468 138.535Z" fill="#0CBC8B"/>
<path d="M19.5817 137.713L13.7296 135.916C13.0563 135.711 12.3362 135.806 11.7273 136.181C11.1183 136.557 10.6703 137.181 10.4816 137.917L9.80958 140.531C9.71514 140.897 9.68755 141.279 9.72844 141.656C9.76932 142.033 9.87786 142.398 10.0478 142.729C10.2178 143.06 10.4458 143.351 10.7189 143.586C10.9919 143.82 11.3046 143.993 11.6389 144.095L13.1043 144.544L16.0172 145.443L17.4816 145.892C18.1562 146.099 18.8781 146.004 19.4889 145.629C20.0996 145.254 20.5493 144.629 20.739 143.891L21.411 141.266C21.5984 140.53 21.511 139.742 21.1681 139.076C20.8251 138.409 20.2546 137.919 19.5817 137.713V137.713ZM18.975 139.857C18.9229 140.065 18.8095 140.247 18.6525 140.377C18.4954 140.506 18.3035 140.575 18.107 140.572C18.0284 140.572 17.95 140.562 17.8736 140.541L13.8416 139.306C13.6338 139.242 13.4543 139.097 13.3361 138.9C13.2179 138.702 13.1691 138.464 13.1987 138.23C13.2283 137.996 13.3342 137.782 13.497 137.627C13.6598 137.472 13.8684 137.386 14.0843 137.386C14.1629 137.386 14.2412 137.396 14.3176 137.417L18.359 138.662C18.4718 138.695 18.5774 138.753 18.6697 138.831C18.762 138.909 18.8392 139.007 18.8965 139.118C18.9539 139.229 18.9904 139.352 19.0038 139.479C19.0173 139.606 19.0075 139.735 18.975 139.857V139.857Z" fill="#1F2A37"/>
<path d="M15.0008 150.683L15.9015 147.168L15.5953 147.074L17.0616 141.347L14.1533 140.456L9.99438 156.698C9.88646 157.12 9.93605 157.572 10.1322 157.953C10.3284 158.335 10.6552 158.616 11.0407 158.735V158.735C11.2319 158.794 11.432 158.811 11.6295 158.786C11.8269 158.761 12.0179 158.693 12.1913 158.586C12.3647 158.48 12.5173 158.337 12.6401 158.166C12.763 157.995 12.8538 157.799 12.9073 157.59L13.4421 155.499L13.7483 155.593L14.5024 152.648L14.1963 152.554L14.7003 150.589L15.0008 150.683Z" fill="#1F2A37"/>
<path d="M20.8875 133.978C21.6877 130.795 20.668 127.713 18.6099 127.093C16.5518 126.474 14.2346 128.552 13.4344 131.735C12.6342 134.917 13.6539 138 15.712 138.619C17.7701 139.239 20.0873 137.161 20.8875 133.978Z" stroke="#1F2A37" stroke-miterlimit="10"/>
<path d="M11.0155 133.138C11.0155 133.138 18.3525 137.271 26.2663 137.271L28.8227 123.418C28.8227 123.418 21.3046 115.992 18.5961 116.758C16.3561 117.391 17.9269 119.755 19.9354 121.953" fill="#E98862"/>
<path d="M11.0155 133.138C11.0155 133.138 18.3525 137.271 26.2663 137.271L28.8227 123.418C28.8227 123.418 21.3046 115.992 18.5961 116.758C16.3561 117.391 17.9269 119.755 19.9354 121.953" fill="#E98862"/>
<path d="M101.439 483.786C99.3739 464.774 99.3739 462.817 99.3739 462.174H118.974C118.974 462.108 118.974 462.025 118.974 461.923C119.043 463.51 120.031 473.193 120.908 481.252L101.439 483.786Z" fill="#E98862"/>
<path d="M179.538 486.349C179.538 486.349 179.472 464.141 179.472 462.174H199.072C199.072 464.135 199.138 486.278 199.138 486.278L179.538 486.349Z" fill="#E98862"/>
<path d="M155.711 494.643C155.184 494.64 154.663 494.518 154.181 494.285C153.699 494.052 153.266 493.713 152.909 493.289C152.551 492.864 152.278 492.364 152.106 491.819C151.933 491.274 151.865 490.696 151.906 490.121C151.963 489.324 152.227 488.562 152.667 487.923C153.106 487.285 153.703 486.797 154.388 486.517L177.201 478.158C177.643 477.998 178.112 477.944 178.574 478C179.037 478.056 179.483 478.221 179.882 478.484C183.018 480.865 186.77 482.082 190.586 481.956C193.557 481.725 196.409 480.584 198.818 478.666C199.029 478.476 199.286 478.355 199.558 478.319C199.829 478.282 200.105 478.331 200.352 478.46C200.599 478.588 200.808 478.791 200.954 479.044C201.1 479.298 201.177 479.591 201.176 479.891V492.1C201.176 492.46 201.111 492.817 200.985 493.149C200.859 493.482 200.674 493.784 200.441 494.038C200.208 494.292 199.931 494.493 199.627 494.63C199.322 494.767 198.996 494.836 198.667 494.835L155.711 494.643Z" fill="#FF4444"/>
<path d="M77.5589 494.643C77.0318 494.64 76.5108 494.518 76.0286 494.286C75.5463 494.053 75.1132 493.713 74.7562 493.289C74.3992 492.865 74.1259 492.364 73.9536 491.819C73.7813 491.274 73.7136 490.696 73.7546 490.121C73.8114 489.324 74.0751 488.562 74.5146 487.923C74.9541 487.285 75.5511 486.797 76.2354 486.517L99.0491 478.158C99.491 477.998 99.9593 477.944 100.422 478C100.885 478.056 101.331 478.221 101.73 478.484C104.866 480.865 108.618 482.082 112.433 481.956C115.405 481.725 118.257 480.585 120.665 478.666C120.877 478.476 121.134 478.355 121.405 478.319C121.677 478.283 121.953 478.332 122.2 478.46C122.447 478.588 122.656 478.791 122.802 479.045C122.948 479.298 123.025 479.591 123.025 479.891V492.1C123.025 492.46 122.96 492.817 122.833 493.149C122.707 493.482 122.522 493.784 122.289 494.038C122.056 494.292 121.779 494.493 121.475 494.63C121.17 494.767 120.844 494.836 120.515 494.835L77.5589 494.643Z" fill="#FF4444"/>
<path d="M169.779 478.977L204.189 477.839C199.996 407.669 187.027 178.849 187.027 178.849L116.021 183.648L115.291 189.091L115.042 189.01C107.32 233.793 101.807 280.829 95.6638 326.212C94.662 333.608 94.1523 341.073 94.1388 348.55C94.065 390.363 94.1388 436.843 94.2088 478.417L128.738 479.06C128.628 435.23 131.444 387.324 132.663 343.36C138.478 308.641 142.025 272.33 148.17 237.249C154.095 310.08 163.571 409.668 169.779 478.977Z" fill="#262626"/>
<path d="M207.924 215.646C207.924 218.689 206.455 228.862 208.817 229.589C210.234 230.025 211.907 222.44 211.907 222.44" fill="#E98862"/>
<path d="M219.075 214.047C219.075 214.047 226.788 234.587 217.99 246.387C217.766 246.687 217.464 246.906 217.124 247.016C216.784 247.125 216.422 247.12 216.084 247.001C215.747 246.882 215.451 246.654 215.234 246.347C215.016 246.041 214.889 245.67 214.867 245.283C214.44 237.327 212.974 220.984 208.179 222.894V210.064" fill="#E98862"/>
<path d="M114.909 137.529C114.607 109.21 101.003 70.6421 131.967 69.192C135.714 69.0154 153.999 68.9878 167.387 68.9878C176.381 68.9878 183.765 72.0074 188.028 76.6731C202.73 92.7576 184.685 120.166 184.685 141.62C184.685 163.073 193.552 172.682 192.898 183.687C191.872 200.991 115.031 196.903 111.115 187.074C107.086 176.93 115.268 170.684 114.909 137.529Z" fill="#FF0000"/>
<path d="M203.298 217.867L194.804 155.264L173.742 92.6033L192.842 84.918L214.265 148.654C214.506 149.369 214.678 150.109 214.781 150.862L223.428 214.598L203.298 217.867Z" fill="#FF0000"/>
<path d="M85.3112 155.984C84.5471 155.984 83.7857 155.887 83.0423 155.693L23.147 140.11L27.6812 119.247L81.0039 133.12L115.156 78.1589L131.364 90.2149L93.4145 151.29C92.516 152.736 91.308 153.92 89.8956 154.738C88.4832 155.556 86.9094 155.984 85.3112 155.984Z" fill="#FF0000"/>
<path d="M21.7283 123.733C21.8233 123.266 21.832 122.783 21.7539 122.312C21.6759 121.841 21.5126 121.392 21.2738 120.992C21.0349 120.591 20.7253 120.246 20.3631 119.978C20.0009 119.71 19.5933 119.524 19.1644 119.431C16.8554 118.907 13.4767 118.497 12.0225 120.088C9.7097 122.619 8.15289 130.563 9.7097 132.267C11.2665 133.97 18.3506 136.388 19.479 132.525C20.2229 129.98 21.1945 126.204 21.7283 123.733Z" fill="#E98862"/>
</g>
<defs>
<clipPath id="clip0_150_647">
<rect width="252" height="495" fill="white"/>
</clipPath>
</defs>
</svg>
